<svg width="1158" height="994" viewBox="0 0 1158 994" fill="none" xmlns="http://www.w3.org/2000/svg">
<g opacity="0.4" filter="url(#filter0_f_9918_8333)">
<path d="M737.477 226.861C751.009 183.22 799.127 159.19 836.508 185.463C860.645 202.428 882.689 222.819 901.993 246.175C939.697 291.795 965.619 347.124 977.159 406.611C988.698 466.098 985.449 527.652 967.737 585.099C950.025 642.546 918.473 693.867 876.247 733.914C834.02 773.962 782.602 801.327 727.151 813.266C671.7 825.205 614.164 821.298 560.315 801.936C506.467 782.575 216.698 770.398 178.85 724.913C147.08 686.731 293.758 626.207 334.747 572.592C347.363 556.091 350.99 533.038 362.278 515.601L471.556 346.803C510.627 286.451 556.712 304.52 542.143 374.923C518.651 488.448 493.855 611.006 500.849 619.412C513.733 634.896 608.267 579.125 626.598 585.716C644.929 592.307 664.515 593.637 683.391 589.573C694.397 587.204 673.262 525.401 675.041 505.184C679.345 456.26 777.975 564.099 826.005 574.355C882.678 586.456 944.972 600.528 948.349 589.573C954.379 570.017 772.425 471.392 768.497 451.142C764.569 430.892 755.745 412.057 742.91 396.527C721.843 371.038 703.067 337.833 712.861 306.248L737.477 226.861Z" fill="url(#paint0_linear_9918_8333)"/>
</g>
<defs>
<filter id="filter0_f_9918_8333" x="0.482819" y="0.646637" width="1157.35" height="993.287" filterUnits="userSpaceOnUse" color-interpolation-filters="sRGB">
<feFlood flood-opacity="0" result="BackgroundImageFix"/>
<feBlend mode="normal" in="SourceGraphic" in2="BackgroundImageFix" result="shape"/>
<feGaussianBlur stdDeviation="86.95" result="effect1_foregroundBlur_9918_8333"/>
</filter>
<linearGradient id="paint0_linear_9918_8333" x1="646.861" y1="474.642" x2="423.368" y2="890.295" gradientUnits="userSpaceOnUse">
<stop stop-color="#D2C8F6"/>
<stop offset="1" stop-color="#6C44FF"/>
</linearGradient>
</defs>
</svg>
