<svg width="626" height="586" viewBox="0 0 626 586" fill="none" xmlns="http://www.w3.org/2000/svg">
<g opacity="0.4" filter="url(#filter0_f_9935_3681)">
<path d="M215.296 111.321C195.871 82.4419 155.422 75.4589 134.498 103.272C123.021 118.526 113.345 135.344 105.735 153.381C89.5757 191.682 83.3028 234.136 87.5451 276.485C91.7875 318.834 106.396 359.588 129.905 394.662C153.415 429.735 184.999 457.894 221.489 476.313C257.979 494.733 298.093 502.766 337.808 499.607C377.522 496.448 415.441 482.208 447.76 458.315C480.08 434.422 505.664 401.716 521.946 363.478C530.965 342.298 536.955 319.834 539.806 296.808C543.66 265.684 515.495 242.399 484.228 244.829C452.104 247.326 429.621 276.982 417.831 306.968C417.424 308.003 417.002 309.033 416.566 310.056C408.535 328.917 395.916 345.049 379.975 356.834C364.033 368.619 345.33 375.643 325.742 377.201C306.153 378.759 286.367 374.797 268.368 365.711C250.37 356.626 234.791 342.737 223.195 325.438C211.6 308.138 204.394 288.036 202.302 267.148C200.209 246.26 203.303 225.32 211.273 206.428C211.537 205.805 211.805 205.184 212.078 204.567C225.226 174.826 233.446 138.304 215.296 111.321Z" fill="url(#paint0_linear_9935_3681)"/>
</g>
<defs>
<filter id="filter0_f_9935_3681" x="0.956345" y="0.366989" width="624.504" height="585.211" filterUnits="userSpaceOnUse" color-interpolation-filters="sRGB">
<feFlood flood-opacity="0" result="BackgroundImageFix"/>
<feBlend mode="normal" in="SourceGraphic" in2="BackgroundImageFix" result="shape"/>
<feGaussianBlur stdDeviation="42.65" result="effect1_foregroundBlur_9935_3681"/>
</filter>
<linearGradient id="paint0_linear_9935_3681" x1="318.864" y1="182.761" x2="553.105" y2="417.288" gradientUnits="userSpaceOnUse">
<stop stop-color="#D2C8F6"/>
<stop offset="1" stop-color="#6C44FF"/>
</linearGradient>
</defs>
</svg>
