<svg width="989" height="853" viewBox="0 0 989 853" fill="none" xmlns="http://www.w3.org/2000/svg">
<g opacity="0.4" filter="url(#filter0_f_9935_8698)">
<path d="M614.244 226.202C627.776 182.56 676.254 158.527 711.768 187.275C725.413 198.32 738.058 210.834 749.487 224.663C779.289 260.721 799.778 304.453 808.898 351.471C818.019 398.489 815.451 447.142 801.452 492.548C787.452 537.954 762.514 578.518 729.138 610.171C695.762 641.825 655.121 663.454 611.293 672.891C567.464 682.327 521.988 679.239 479.426 663.936C436.864 648.632 207.831 639.008 177.916 603.056C153.826 574.105 259.545 528.901 296.786 487.857C310.744 472.474 315.298 449.356 326.587 431.919L386.761 338.97C425.831 278.618 471.076 296.585 456.711 367.03C441.172 443.231 427.727 514.023 432.424 519.669C442.608 531.907 517.327 487.826 531.816 493.036C546.304 498.245 561.785 499.297 576.705 496.084C582.961 494.737 576.077 469.091 572.241 448.851C563.096 400.597 660.559 477.939 708.597 488.156C747.243 496.376 783.837 503.515 786.128 496.084C790.893 480.627 647.078 402.674 643.973 386.668C640.868 370.663 633.893 355.776 623.748 343.501C607.097 323.354 592.257 297.109 599.998 272.144L614.244 226.202Z" fill="url(#paint0_linear_9935_8698)"/>
</g>
<defs>
<filter id="filter0_f_9935_8698" x="0.48526" y="0.856842" width="987.666" height="851.283" filterUnits="userSpaceOnUse" color-interpolation-filters="sRGB">
<feFlood flood-opacity="0" result="BackgroundImageFix"/>
<feBlend mode="normal" in="SourceGraphic" in2="BackgroundImageFix" result="shape"/>
<feGaussianBlur stdDeviation="86.95" result="effect1_foregroundBlur_9935_8698"/>
</filter>
<linearGradient id="paint0_linear_9935_8698" x1="547.832" y1="405.243" x2="371.183" y2="733.775" gradientUnits="userSpaceOnUse">
<stop stop-color="#D2C8F6"/>
<stop offset="1" stop-color="#6C44FF"/>
</linearGradient>
</defs>
</svg>
