<svg width="63" height="42" viewBox="0 0 63 42" fill="none" xmlns="http://www.w3.org/2000/svg">
<path d="M13.3081 19.9887C10.8942 18.8362 7.9801 19.8079 6.79351 22.1526L0.499905 34.7853C-0.680873 37.13 0.313772 39.9605 2.72768 41.113C3.41404 41.4407 4.14694 41.5989 4.8682 41.5989C6.66554 41.5989 8.39308 40.6271 9.24231 38.9548L15.5417 26.3164C16.7225 23.9718 15.7279 21.1413 13.314 19.9887H13.3081Z" fill="url(#paint0_linear_9430_2139)" fill-opacity="0.6"/>
<path d="M7.0166 22.2633C8.14086 20.0442 10.9064 19.1194 13.2002 20.2145L13.252 20.2389H13.2539C15.439 21.3124 16.3673 23.838 15.417 25.9948L15.3184 26.2037V26.2047L9.01953 38.8414C8.21563 40.4245 6.57751 41.3492 4.86816 41.3492C4.26908 41.3492 3.66137 41.2339 3.08203 40.9967L2.83496 40.8873C0.615558 39.8274 -0.332259 37.2795 0.625 35.1071L0.723633 34.8981V34.8971L7.01758 22.2643L7.0166 22.2633Z" stroke="white" stroke-opacity="0.5" stroke-width="0.5"/>
<path d="M43.0494 34.7853L27.0245 3.05085C25.8438 0.706219 22.9238 -0.259882 20.5099 0.88701C18.096 2.0339 17.1014 4.87006 18.2821 7.21469L34.307 38.9492C35.1504 40.6215 36.8837 41.5932 38.6811 41.5932C39.4023 41.5932 40.1294 41.435 40.8216 41.1073C43.2355 39.9605 44.2302 37.1243 43.0494 34.7797V34.7853Z" fill="url(#paint1_linear_9430_2139)" fill-opacity="0.6"/>
<path d="M20.6172 1.11328C22.8408 0.0567783 25.5106 0.888535 26.6914 2.95898L26.8008 3.16309H26.8018L42.8262 34.8984L42.8281 34.8975C43.9054 37.0432 43.0595 39.6263 40.9248 40.7744L40.7139 40.8818C40.0554 41.1934 39.3647 41.3428 38.6807 41.3428C37.0777 41.3426 35.5336 40.5303 34.6895 39.125L34.5303 38.8369L18.5059 7.10254C17.4248 4.95587 18.2701 2.36879 20.4062 1.21973L20.6172 1.11328Z" stroke="white" stroke-opacity="0.5" stroke-width="0.5"/>
<path d="M51.4887 24.6611C50.1567 23.2656 48.1791 22.8079 46.4225 23.3221C45.7186 23.5255 45.0555 23.887 44.4797 24.4012C42.4671 26.2091 42.3508 29.2599 44.2121 31.2147L54.4029 40.4577C56.2642 42.4125 59.4052 42.5255 61.4177 40.7175C63.4303 38.9096 63.5466 35.8588 61.6853 33.904L51.4946 24.6611H51.4887Z" fill="url(#paint2_linear_9430_2139)" fill-opacity="0.6"/>
<path d="M46.4932 23.5618C48.1644 23.0728 50.0435 23.5092 51.3076 24.8333L51.3818 24.9114H51.3984L61.5029 34.0764H61.5039C63.213 35.8714 63.1632 38.6382 61.4238 40.3674L61.251 40.5315C59.398 42.196 56.5367 42.1465 54.7529 40.4543L54.5713 40.2727L44.3916 31.0403C42.6295 29.1877 42.7391 26.3004 44.6455 24.5872L44.6465 24.5881C45.1259 24.1601 45.6678 23.8435 46.2432 23.6418L46.4922 23.5618H46.4932Z" stroke="white" stroke-opacity="0.5" stroke-width="0.5"/>
<path d="M51.4887 17.339L61.6795 8.09607C63.5408 6.14127 63.4244 3.09607 61.4119 1.28251C60.836 0.768389 60.1729 0.406807 59.4691 0.203417C57.7125 -0.310707 55.729 0.14692 54.397 1.5424L44.2063 10.7853C42.345 12.7401 42.4613 15.7853 44.4738 17.5989C46.4864 19.4068 49.6216 19.2938 51.4887 17.339Z" fill="url(#paint3_linear_9430_2139)" fill-opacity="0.6"/>
<path d="M54.5781 1.7146C55.7632 0.473344 57.494 0.011856 59.083 0.362061L59.3984 0.443115H59.3994C59.9838 0.612002 60.5393 0.896625 61.0361 1.29272L61.2451 1.46948C63.152 3.18871 63.2614 6.06926 61.499 7.92163L51.3203 17.1541L51.1387 17.3357C49.3498 19.0284 46.4934 19.0773 44.6406 17.4128H44.6416C42.793 15.747 42.632 12.9896 44.2275 11.1345L44.3877 10.9578L54.5654 1.72729L54.5781 1.7146Z" stroke="white" stroke-opacity="0.5" stroke-width="0.5"/>
<defs>
<linearGradient id="paint0_linear_9430_2139" x1="8.02082" y1="19.5" x2="8.02082" y2="41.5989" gradientUnits="userSpaceOnUse">
<stop stop-color="#1C1C1C"/>
<stop offset="1" stop-color="#303030"/>
</linearGradient>
<linearGradient id="paint1_linear_9430_2139" x1="30.6658" y1="2" x2="30.6658" y2="41.5932" gradientUnits="userSpaceOnUse">
<stop stop-color="#1C1C1C"/>
<stop offset="1" stop-color="#303030"/>
</linearGradient>
<linearGradient id="paint2_linear_9430_2139" x1="53" y1="17.5" x2="53" y2="39.5" gradientUnits="userSpaceOnUse">
<stop stop-color="#1C1C1C"/>
<stop offset="1" stop-color="#303030"/>
</linearGradient>
<linearGradient id="paint3_linear_9430_2139" x1="53" y1="3.5" x2="52" y2="41" gradientUnits="userSpaceOnUse">
<stop stop-color="#1C1C1C"/>
<stop offset="1" stop-color="#303030"/>
</linearGradient>
</defs>
</svg>
