<svg width="846" height="581" viewBox="0 0 846 581" fill="none" xmlns="http://www.w3.org/2000/svg">
<g clip-path="url(#clip0_9430_2104)">
<path d="M91.7773 306.619C107.447 274.634 145.858 261.32 177.911 276.62L177.869 276.663L178.497 276.972C210.425 292.629 223.74 330.984 208.541 363.031L208.177 363.787L208.176 363.789L123.581 538.573C112.309 561.538 89.266 574.909 65.3125 574.909C56.0229 574.909 46.605 572.904 37.6777 568.685L36.8154 568.269C4.88739 552.612 -8.42767 514.257 6.77148 482.209L7.13574 481.453L7.13672 481.451L91.7783 306.62L91.7773 306.619Z" stroke="url(#paint0_linear_9430_2104)"/>
<path d="M275.717 12.7302C307.599 -2.92643 346.104 10.0685 362.108 41.6775L362.482 42.4275L577.658 481.454L577.678 481.449C593.295 513.342 580.35 551.843 548.729 567.849L547.979 568.223C538.797 572.726 529.071 574.863 519.481 574.863C495.528 574.863 472.484 561.493 461.212 538.527H461.213L246.037 99.5466V99.5457C230.389 67.6446 243.331 29.1177 274.966 13.1042L275.717 12.7302Z" stroke="url(#paint1_linear_9430_2104)"/>
<path d="M623.456 323.057C646.854 316.057 673.247 322.324 690.975 341.445V341.447L691.021 341.493L691.021 341.491L827.826 469.303C852.487 495.883 851.066 537.322 824.894 562.221L824.271 562.806C797.497 587.685 755.63 586.049 730.81 559.259L730.784 559.233L593.943 431.388C569.136 404.599 570.775 362.717 597.545 337.887C605.228 330.79 614.093 325.878 623.457 323.058L623.456 323.057Z" stroke="url(#paint2_linear_9430_2104)"/>
<path d="M730.855 21.7415C748.307 2.89264 774.171 -3.48492 797.307 3.0022L798.406 3.32056H798.407C807.477 6.00773 816.121 10.7441 823.596 17.4885L824.315 18.1477H824.316C851.087 42.9783 852.681 84.8604 827.872 111.651L691.032 239.495L690.654 239.849L690.723 239.917C666.058 266.161 624.9 267.815 598.222 243.692L597.592 243.115H597.591C570.774 218.284 569.18 176.401 593.989 149.611L730.829 21.7668L730.843 21.7542L730.855 21.7415Z" stroke="url(#paint3_linear_9430_2104)"/>
</g>
<defs>
<linearGradient id="paint0_linear_9430_2104" x1="108" y1="19.5" x2="108" y2="507.5" gradientUnits="userSpaceOnUse">
<stop stop-color="white"/>
<stop offset="1" stop-color="white" stop-opacity="0.1"/>
</linearGradient>
<linearGradient id="paint1_linear_9430_2104" x1="412" y1="-284" x2="424" y2="309" gradientUnits="userSpaceOnUse">
<stop stop-color="white"/>
<stop offset="1" stop-color="white" stop-opacity="0.1"/>
</linearGradient>
<linearGradient id="paint2_linear_9430_2104" x1="711" y1="227.5" x2="711" y2="450" gradientUnits="userSpaceOnUse">
<stop stop-color="white"/>
<stop offset="1" stop-color="white" stop-opacity="0.1"/>
</linearGradient>
<linearGradient id="paint3_linear_9430_2104" x1="710.933" y1="0.0422363" x2="673.5" y2="261" gradientUnits="userSpaceOnUse">
<stop stop-color="white"/>
<stop offset="1" stop-color="white" stop-opacity="0.1"/>
</linearGradient>
<clipPath id="clip0_9430_2104">
<rect width="846" height="581" fill="white"/>
</clipPath>
</defs>
</svg>
