<svg width="175" height="28" viewBox="0 0 175 28" fill="none" xmlns="http://www.w3.org/2000/svg">
<g clip-path="url(#clip0_9576_964)">
<path d="M91.9381 0.649824C90.4333 -0.0843929 88.6146 0.534703 87.8738 2.03128L77.6564 22.3028C76.9181 23.7994 77.5407 25.6081 79.0455 26.3423C79.4751 26.5521 79.9304 26.6518 80.3805 26.6518C81.5021 26.6518 82.5825 26.0302 83.1098 24.9608L93.3298 4.68929C94.068 3.19272 93.4455 1.38404 91.9407 0.649824H91.9381Z" fill="white"/>
<path d="M104.204 22.3028L94.2078 2.03128C93.4696 0.534703 91.6509 -0.0843929 90.1461 0.649824C88.6412 1.38404 88.0187 3.19272 88.757 4.68929L98.7532 24.9608C99.2805 26.0302 100.358 26.6518 101.482 26.6518C101.93 26.6518 102.388 26.5521 102.817 26.3423C104.322 25.6081 104.945 23.7994 104.207 22.3028H104.204Z" fill="white"/>
<path d="M8.304 13.5561C6.79917 12.8219 4.98051 13.441 4.23967 14.9375L0.311684 23.0113C-0.426582 24.5079 0.195928 26.3166 1.70076 27.0508C2.13034 27.2606 2.58565 27.3604 3.03581 27.3604C4.15736 27.3604 5.23775 26.7387 5.76508 25.6694L9.69564 17.5981C10.4339 16.1015 9.8114 14.2928 8.30657 13.5586L8.304 13.5561Z" fill="#1ECAD3"/>
<path d="M26.8583 23.0114L16.8621 2.73733C16.1239 1.24076 14.3052 0.621662 12.8004 1.35588C11.2955 2.09009 10.673 3.89877 11.4113 5.39535L21.4075 25.6669C21.9348 26.7362 23.0126 27.3579 24.1367 27.3579C24.5843 27.3579 25.0422 27.2581 25.4718 27.0483C26.9766 26.3141 27.5991 24.5054 26.8609 23.0089L26.8583 23.0114Z" fill="#1ECAD3"/>
<path d="M152.16 1.77542C151.329 0.885153 150.094 0.590955 148.998 0.918411C148.561 1.04888 148.144 1.27912 147.787 1.60914C146.531 2.76546 146.457 4.71229 147.619 5.96071L153.978 11.8651C155.141 13.1136 157.098 13.1878 158.354 12.0314C159.609 10.8751 159.684 8.92828 158.521 7.67985L152.162 1.77542H152.16Z" fill="#1ECAD3"/>
<path d="M167.818 16.5415C166.987 15.6513 165.752 15.3571 164.656 15.6845C164.219 15.815 163.802 16.0452 163.445 16.3753C162.189 17.5316 162.115 19.4784 163.278 20.7268L169.636 26.6313C170.799 27.8797 172.757 27.9539 174.012 26.7975C175.267 25.6412 175.342 23.6944 174.179 22.446L167.82 16.5415H167.818Z" fill="#1ECAD3"/>
<path d="M167.818 11.8651L174.177 5.96071C175.339 4.71229 175.265 2.76546 174.009 1.60914C173.652 1.27912 173.235 1.04888 172.798 0.918411C171.702 0.590955 170.465 0.885153 169.636 1.77542L163.278 7.67985C162.115 8.92828 162.189 10.8751 163.445 12.0314C164.7 13.1878 166.658 13.1136 167.82 11.8651H167.818Z" fill="#1ECAD3"/>
<path d="M157.14 15.6872C156.044 15.3598 154.807 15.654 153.978 16.5442L147.619 22.4487C146.457 23.6971 146.531 25.6439 147.787 26.8002C149.042 27.9566 150.999 27.8824 152.162 26.6339L158.521 20.7295C159.684 19.4811 159.609 17.5343 158.354 16.3779C157.996 16.0479 157.58 15.8177 157.142 15.6872H157.14Z" fill="#1ECAD3"/>
<path d="M48.3271 23.0242H38.3464V2.52495C38.3464 1.83934 38.0968 1.24838 37.6081 0.777663C37.1296 0.28648 36.5354 0.0383301 35.846 0.0383301C35.1566 0.0383301 34.5624 0.28648 34.0891 0.772547C33.5952 1.24838 33.3457 1.83934 33.3457 2.52495V25.5108C33.3457 26.1964 33.5952 26.7873 34.084 27.2581C34.5624 27.7493 35.1566 27.9974 35.846 27.9974H48.3271C49.0165 27.9974 49.6159 27.7492 50.1072 27.2606C50.5856 26.7848 50.83 26.1938 50.83 25.5108C50.83 24.8277 50.5882 24.2368 50.1072 23.7609C49.6159 23.2723 49.0165 23.0242 48.3271 23.0242Z" fill="white"/>
<path d="M71.2653 0H55.2343C54.545 0 53.9456 0.24815 53.4543 0.736775C52.9758 1.21261 52.7314 1.80356 52.7314 2.48661C52.7314 3.16967 52.9732 3.76062 53.4543 4.23645C53.9456 4.72508 54.545 4.97323 55.2343 4.97323H60.7392V25.5083C60.7392 26.1939 60.9887 26.7899 61.48 27.2786C61.9585 27.7544 62.5501 27.9974 63.2395 27.9974C63.9289 27.9974 64.5206 27.757 64.999 27.2786C65.4903 26.7899 65.7399 26.1939 65.7399 25.5083V4.97579H71.2627C71.9392 4.97579 72.5309 4.72764 73.0222 4.23901C73.5007 3.76318 73.745 3.17478 73.745 2.48917C73.745 1.80356 73.5032 1.21517 73.0222 0.739333C72.5309 0.250708 71.9367 0.00255825 71.2627 0.00255825L71.2653 0Z" fill="white"/>
<path d="M125.39 13.7915C126.895 12.2182 127.659 10.3455 127.659 8.22476C127.659 5.94536 126.797 3.99342 125.097 2.4201C123.389 0.851894 121.274 0.0588379 118.807 0.0588379L110.702 0.0972116C110.028 0.110003 109.439 0.358153 108.945 0.836545C108.466 1.32517 108.225 1.91357 108.225 2.58383V25.5108C108.225 26.1964 108.474 26.7874 108.963 27.2581C109.441 27.7493 110.036 27.9974 110.725 27.9974H119.27C121.699 27.9974 123.8 27.1839 125.521 25.5773C127.257 23.9656 128.14 22.0009 128.14 19.7343C128.14 17.4677 127.214 15.3648 125.39 13.7889V13.7915ZM121.537 10.5886C120.773 11.2512 119.862 11.5889 118.83 11.5889H113.23V5.07044L118.83 5.03463C119.901 5.03463 120.819 5.35185 121.56 5.98118C122.298 6.59516 122.656 7.32937 122.656 8.22732C122.656 9.12526 122.288 9.91576 121.537 10.5911V10.5886ZM113.228 16.5646H119.311C120.382 16.5646 121.3 16.8819 122.041 17.5112C122.779 18.1252 123.137 18.8543 123.137 19.7369C123.137 20.6195 122.771 21.4023 122.018 22.0444C121.266 22.6942 120.343 23.0242 119.27 23.0242H113.225V16.5646H113.228Z" fill="white"/>
<path d="M139.363 0.87239C138.885 0.381207 138.29 0.133057 137.601 0.133057C136.912 0.133057 136.317 0.381207 135.844 0.867273C135.35 1.34311 135.101 1.93406 135.101 2.61967V25.5083C135.101 26.1939 135.35 26.7849 135.839 27.2556C136.317 27.7468 136.912 27.9949 137.601 27.9949C138.29 27.9949 138.885 27.7468 139.358 27.2607C139.852 26.7849 140.101 26.1939 140.101 25.5083V2.62223C140.101 1.93662 139.852 1.34567 139.363 0.87239Z" fill="white"/>
</g>
<defs>
<clipPath id="clip0_9576_964">
<rect width="175" height="28" fill="white"/>
</clipPath>
</defs>
</svg>
