<svg width="47" height="32" viewBox="0 0 47 32" fill="none" xmlns="http://www.w3.org/2000/svg">
<g clip-path="url(#clip0_9935_7341)">
<path d="M9.9293 15.2273C8.12754 14.3504 5.95252 15.0881 5.07129 16.8753L0.370449 26.5046C-0.51359 28.2918 0.230125 30.4492 2.03188 31.3233C2.54546 31.5739 3.08992 31.6908 3.62876 31.6908C4.97026 31.6908 6.26123 30.9503 6.88988 29.6753L11.5907 20.0461C12.4748 18.2589 11.7311 16.1014 9.9293 15.2273Z" fill="white"/>
<path d="M32.1172 26.5048L20.1616 2.32455C19.2776 0.540119 17.1025 -0.200377 15.3036 0.676526C13.5047 1.55343 12.7609 3.71089 13.6422 5.49532L25.5977 29.6728C26.2292 30.9478 27.5174 31.6883 28.8589 31.6883C29.3949 31.6883 29.9394 31.5686 30.4557 31.3208C32.2575 30.4439 32.9984 28.2864 32.1172 26.502V26.5048Z" fill="white"/>
<path d="M38.4122 18.7908C37.4187 17.7273 35.9425 17.3794 34.6318 17.7691C34.107 17.925 33.6103 18.1978 33.1809 18.5931C31.6822 19.9711 31.5924 22.2956 32.9816 23.7821L40.5844 30.8252C41.9736 32.3118 44.317 32.4008 45.8156 31.0229C47.3143 29.6449 47.4041 27.3204 46.0149 25.8338L38.4122 18.7908Z" fill="#1ECAD3"/>
<path d="M38.412 13.209L46.0148 6.16593C47.404 4.67937 47.3142 2.35488 45.8155 0.976893C45.3861 0.584375 44.8894 0.308777 44.3646 0.152883C43.0539 -0.236852 41.5749 0.111126 40.5814 1.17454L32.9787 8.21761C31.5895 9.70417 31.6793 12.0287 33.178 13.4066C34.6766 14.7846 37.02 14.6956 38.4092 13.209H38.412Z" fill="#1ECAD3"/>
</g>
<defs>
<clipPath id="clip0_9935_7341">
<rect width="47" height="32" fill="white"/>
</clipPath>
</defs>
</svg>
