<svg width="873" height="143" viewBox="0 0 873 143" fill="none" xmlns="http://www.w3.org/2000/svg">
<g clip-path="url(#clip0_9486_1370)">
<path d="M20.8761 90.9325C26.8661 94.9246 33.272 98.2493 39.9802 100.848C45.6453 103.121 51.674 104.346 57.7742 104.463C61.9077 104.697 66.0363 103.926 69.8098 102.217C71.1144 101.621 72.213 100.649 72.9662 99.425C73.7194 98.2009 74.0931 96.7799 74.0399 95.3422C74.0651 94.6278 73.9167 93.9179 73.6077 93.2737C73.2987 92.6296 72.8382 92.0705 72.266 91.6447C70.816 90.6234 69.1998 89.8634 67.49 89.3987C65.2307 88.7308 62.9217 88.2454 60.5852 87.9471C57.8561 87.591 55.1269 87.098 52.3978 86.4955L43.146 84.7973C39.443 84.091 35.7949 83.1207 32.2294 81.894C28.4741 80.5888 24.8245 78.9955 21.3128 77.1283C17.6682 75.2139 14.359 72.7161 11.5152 69.7332C8.56766 66.6169 6.22594 62.9756 4.61041 58.9965C2.72904 54.3361 1.80092 49.3435 1.88126 44.3158C1.66823 37.1711 3.3845 30.1016 6.84831 23.8559C9.88606 18.6642 14.0802 14.2488 19.1022 10.9555C24.2042 7.72433 29.8576 5.46785 35.7773 4.29989C41.6296 3.06698 47.5915 2.43378 53.5713 2.41003C62.7759 2.25748 71.9341 3.75068 80.6172 6.81972C88.8655 9.91218 96.5889 14.2635 103.515 19.7201C103.972 20.0989 104.35 20.5651 104.627 21.0917C104.903 21.6183 105.072 22.1948 105.125 22.7877C105.266 23.9382 104.952 25.0982 104.252 26.0197L90.2238 46.0413C89.5276 46.9825 88.5051 47.6276 87.3582 47.849C86.7962 47.9777 86.2126 47.9781 85.6505 47.8501C85.0884 47.7221 84.5621 47.469 84.1105 47.1095C78.8034 43.6407 73.0697 40.8786 67.0533 38.8927C62.3419 37.3631 57.4308 36.5416 52.4797 36.455H47.922C46.2426 36.499 44.5747 36.7473 42.9549 37.1946C41.5194 37.5408 40.1952 38.2476 39.1068 39.2488C38.5783 39.7756 38.1684 40.41 37.9047 41.1093C37.6411 41.8085 37.5299 42.5564 37.5785 43.3024C37.5785 45.0005 38.8339 46.4796 41.3447 47.8216C44.104 49.2364 46.9919 50.3829 49.9689 51.2453C53.0473 52.16 56.172 52.9097 59.3298 53.4912C62.3046 54.039 64.2423 54.3677 65.061 54.4773C69.819 55.4618 74.5201 56.7052 79.1434 58.2022C84.3134 59.8353 89.1947 62.2754 93.6079 65.433C98.2175 68.7269 102.078 72.9652 104.934 77.8678C108.176 83.7193 109.762 90.3494 109.519 97.0404C109.684 103.464 108.397 109.841 105.753 115.693C103.346 120.785 99.7398 125.213 95.2454 128.593C90.4198 132.129 84.9488 134.679 79.1434 136.098C72.2974 137.799 65.2633 138.618 58.2109 138.535C52.4172 138.568 46.6334 138.054 40.9354 137.002C35.791 136.043 30.7408 134.631 25.8432 132.784C21.3197 131.047 16.9625 128.901 12.8251 126.374C8.91857 124.027 5.17968 121.41 1.63564 118.541C1.16312 118.193 0.771878 117.745 0.489101 117.229C0.206324 116.714 0.0387929 116.143 -0.00185163 115.556C-0.132295 114.368 0.189397 113.174 0.898767 112.214L14.7355 92.1925C15.393 91.2737 16.3645 90.6302 17.4647 90.3848C18.041 90.2431 18.6397 90.2186 19.2256 90.3127C19.8114 90.4068 20.3726 90.6175 20.8761 90.9325Z" fill="url(#paint0_linear_9486_1370)"/>
<path d="M208.806 37.3867H183.671C183.102 37.372 182.536 37.4764 182.01 37.6934C181.484 37.9103 181.008 38.2349 180.614 38.6466C180.207 39.0443 179.885 39.5218 179.669 40.0495C179.453 40.5772 179.347 41.1438 179.359 41.7142V131.88C179.373 133.016 178.953 134.114 178.185 134.948C177.778 135.366 177.289 135.694 176.749 135.911C176.208 136.128 175.628 136.229 175.047 136.208H148.083C147.515 136.213 146.952 136.104 146.428 135.887C145.903 135.671 145.426 135.352 145.026 134.948C144.618 134.55 144.297 134.072 144.081 133.545C143.865 133.017 143.759 132.45 143.771 131.88V41.7142C143.799 40.5761 143.377 39.4729 142.597 38.6466C142.196 38.2215 141.707 37.8888 141.165 37.6713C140.624 37.4538 140.041 37.3567 139.459 37.3867H113.941C113.374 37.3903 112.811 37.2808 112.287 37.0647C111.762 36.8485 111.285 36.5298 110.884 36.1273C110.483 35.7247 110.165 35.2462 109.95 34.7195C109.734 34.1928 109.625 33.6285 109.629 33.0591V8.40869C109.616 7.84224 109.722 7.27938 109.938 6.75595C110.154 6.23252 110.476 5.76 110.884 5.36847C111.288 4.97561 111.768 4.66877 112.293 4.46638C112.818 4.264 113.379 4.17023 113.941 4.19072H208.806C209.395 4.16568 209.982 4.26763 210.528 4.48969C211.074 4.71176 211.567 5.04878 211.972 5.47802C212.733 6.30344 213.144 7.39386 213.118 8.51825V33.1687C213.143 34.301 212.732 35.3994 211.972 36.2363C211.556 36.6424 211.058 36.9549 210.512 37.1532C209.967 37.3516 209.385 37.4311 208.806 37.3867Z" fill="url(#paint1_linear_9486_1370)"/>
<path d="M249.96 8.3533C250.495 7.22759 251.337 6.27766 252.389 5.61436C253.459 4.82799 254.748 4.39704 256.074 4.38184H281.237C282.494 4.40268 283.715 4.81412 284.73 5.55958C285.782 6.22288 286.624 7.17282 287.159 8.29852L339.613 130.948C339.856 131.496 339.959 132.097 339.911 132.695C339.864 133.293 339.667 133.87 339.34 134.372C338.934 135.007 338.357 135.514 337.676 135.833C336.995 136.153 336.238 136.273 335.492 136.18H304.762C303.442 136.18 302.154 135.769 301.077 135.002C300.017 134.299 299.13 133.362 298.485 132.263L293.627 121.444C292.955 120.32 292.018 119.379 290.898 118.705C289.886 117.953 288.663 117.541 287.404 117.527H249.606C248.322 117.564 247.073 117.954 245.995 118.655C244.917 119.355 244.052 120.339 243.492 121.499L238.471 132.318C237.913 133.428 237.076 134.372 236.042 135.057C235.018 135.806 233.788 136.217 232.521 136.234H201.627C200.985 136.218 200.349 136.097 199.744 135.878C199.121 135.661 198.566 135.283 198.134 134.783C197.68 134.28 197.394 133.648 197.315 132.975C197.229 132.098 197.42 131.217 197.861 130.455L249.96 8.3533ZM260.55 86.7965H276.542C277.06 86.8603 277.586 86.7849 278.066 86.5779C278.545 86.371 278.961 86.04 279.272 85.6188C279.538 85.2121 279.68 84.736 279.68 84.2493C279.68 83.7626 279.538 83.2865 279.272 82.8798C278.071 79.867 276.542 76.3612 274.96 72.3349C273.377 68.3087 271.521 64.5015 270.183 60.9957C269.72 59.9275 269.174 59.3797 268.573 59.3797C267.973 59.3797 267.427 59.9275 266.963 60.9957L257.984 82.9072C257.745 83.3236 257.619 83.7959 257.619 84.2767C257.619 84.7575 257.745 85.2298 257.984 85.6461C258.268 86.0533 258.656 86.3755 259.108 86.5781C259.56 86.7808 260.058 86.8562 260.55 86.7965Z" fill="url(#paint2_linear_9486_1370)"/>
<path d="M470.424 101.231C467.08 106.693 463.234 111.828 458.934 116.569C454.796 121.081 450.057 124.998 444.852 128.21C439.456 131.524 433.622 134.06 427.522 135.742C420.676 137.622 413.604 138.544 406.507 138.481C397.24 138.532 388.061 136.667 379.543 133.003C371.388 129.565 363.924 124.664 357.519 118.541C351.215 112.362 346.18 105.001 342.7 96.8762C339.075 88.5214 337.217 79.503 337.241 70.3907C337.217 61.2696 339.075 52.2422 342.7 43.8777C346.18 35.7611 351.215 28.4095 357.519 22.2401C363.895 16.0724 371.353 11.1415 379.516 7.69636C388.034 4.03186 397.213 2.16717 406.48 2.21848C413.695 2.14004 420.886 3.06172 427.849 4.95742C433.926 6.64501 439.734 9.19025 445.097 12.5169C450.26 15.7849 454.945 19.7579 459.016 24.3217C463.24 29.0756 467.056 34.1791 470.424 39.5776C470.719 40.0248 470.907 40.5343 470.973 41.0665C471.039 41.5986 470.982 42.1389 470.806 42.6452C470.632 43.1646 470.349 43.6408 469.978 44.0422C469.606 44.4436 469.153 44.761 468.65 44.9733L443.132 55.08C442.563 55.3241 441.95 55.45 441.331 55.45C440.712 55.45 440.099 55.3241 439.53 55.08C438.409 54.6767 437.451 53.9169 436.801 52.9162C433.673 47.7366 429.36 43.38 424.219 40.2076C418.812 37.1319 412.666 35.6064 406.453 35.7979C402.007 35.7731 397.613 36.7562 393.598 38.6738C389.648 40.5581 386.084 43.1686 383.091 46.3702C378.514 51.267 375.422 57.3724 374.18 63.9701C372.938 70.5678 373.596 77.3842 376.077 83.6198C377.688 87.6922 380.07 91.4127 383.091 94.5755C386.103 97.7269 389.664 100.298 393.598 102.162C397.606 104.101 402.003 105.094 406.453 105.066C412.737 105.148 418.923 103.49 424.329 100.272C429.494 97.2576 433.842 93.0159 436.992 87.9199C437.642 86.9193 438.6 86.1594 439.721 85.7561C440.849 85.2919 442.114 85.2919 443.242 85.7561L468.759 95.8628C469.252 96.0704 469.697 96.3767 470.068 96.7628C470.438 97.149 470.727 97.6069 470.915 98.1087C471.063 98.6339 471.095 99.185 471.01 99.7239C470.926 100.263 470.725 100.777 470.424 101.231Z" fill="url(#paint3_linear_9486_1370)"/>
<path d="M555.953 132.948L521.102 93.8356C520.256 92.8496 519.573 92.4936 519.027 92.7401C518.482 92.9866 518.236 93.6987 518.236 94.9038V131.88C518.241 132.449 518.132 133.014 517.917 133.541C517.701 134.067 517.383 134.546 516.981 134.947C516.579 135.35 516.103 135.668 515.578 135.885C515.053 136.101 514.491 136.211 513.924 136.207H486.96C486.378 136.232 485.797 136.132 485.256 135.915C484.715 135.698 484.226 135.368 483.821 134.947C483.041 134.121 482.619 133.018 482.648 131.88V8.51769C482.634 7.95832 482.731 7.40176 482.932 6.88001C483.134 6.35826 483.436 5.88161 483.821 5.47747C484.22 5.04745 484.708 4.7096 485.25 4.48732C485.791 4.26504 486.375 4.16365 486.96 4.19017H513.924C514.494 4.18557 515.059 4.29731 515.584 4.51861C516.109 4.73991 516.585 5.06614 516.981 5.47747C517.383 5.87297 517.702 6.34623 517.918 6.86872C518.134 7.39122 518.242 7.95214 518.236 8.51769V50.0126C518.236 51.2178 518.454 51.9025 518.946 52.0668C519.437 52.2312 520.01 51.8751 520.747 50.9165L553.087 7.69601C553.895 6.64798 554.944 5.81165 556.144 5.25835C557.367 4.62092 558.723 4.28304 560.101 4.27233H594.407C594.961 4.21375 595.518 4.35522 595.978 4.6714C596.438 4.98757 596.771 5.4578 596.917 5.99786C597.1 6.52461 597.148 7.08877 597.057 7.63892C596.967 8.18908 596.74 8.70774 596.399 9.14764L549.13 68.5826C548.421 69.546 548.073 70.729 548.147 71.9241C548.167 73.1088 548.647 74.239 549.485 75.0739C553.56 79.511 557.872 84.1398 562.421 88.9603C566.969 93.7809 571.518 98.6197 576.067 103.477L589.385 117.884C593.752 122.649 597.909 127.068 601.857 131.14C602.259 131.57 602.55 132.091 602.707 132.658C602.864 133.226 602.881 133.823 602.758 134.399C602.683 134.95 602.394 135.449 601.955 135.788C601.515 136.126 600.96 136.277 600.411 136.207H563.158C561.755 136.191 560.37 135.883 559.091 135.303C557.864 134.797 556.784 133.986 555.953 132.948Z" fill="url(#paint4_linear_9486_1370)"/>
<mask id="mask0_9486_1370" style="mask-type:luminance" maskUnits="userSpaceOnUse" x="611" y="4" width="233" height="135">
<path d="M724.804 5.64239C725.192 6.04933 725.494 6.53101 725.691 7.05828C725.888 7.58555 725.976 8.14746 725.951 8.71V81.6479C726.06 89.593 724.69 97.4886 721.911 104.929C719.386 111.651 715.438 117.744 710.34 122.787C705.153 127.82 698.983 131.718 692.218 134.236C677.016 139.641 660.425 139.641 645.222 134.236C638.458 131.718 632.287 127.82 627.101 122.787C622.004 117.726 618.032 111.64 615.447 104.929C612.615 97.5012 611.216 89.6004 611.326 81.6479V8.71C611.316 8.14224 611.42 7.57821 611.631 7.05129C611.842 6.52438 612.156 6.04529 612.554 5.64239C612.951 5.23341 613.427 4.91054 613.952 4.6938C614.478 4.47707 615.043 4.3711 615.611 4.38248H642.602C643.167 4.36824 643.728 4.47301 644.25 4.69003C644.772 4.90704 645.243 5.23148 645.632 5.64239C646.039 6.0401 646.361 6.51763 646.577 7.04533C646.793 7.57303 646.898 8.13964 646.887 8.71V81.6479C646.749 85.6506 647.524 89.632 649.152 93.2884C650.398 96.0772 652.266 98.5416 654.611 100.492C656.715 102.19 659.137 103.447 661.734 104.189C666.168 105.637 670.945 105.637 675.379 104.189C677.956 103.458 680.353 102.199 682.421 100.492C684.746 98.5233 686.61 96.0636 687.879 93.2884C689.619 89.6585 690.506 85.6761 690.472 81.6479V8.71C690.467 8.14052 690.575 7.57578 690.791 7.04897C691.006 6.52217 691.325 6.04394 691.727 5.64239C692.123 5.23341 692.599 4.91054 693.125 4.6938C693.651 4.47707 694.215 4.3711 694.784 4.38248H721.775C722.339 4.36993 722.9 4.47548 723.422 4.69239C723.943 4.90931 724.414 5.23284 724.804 5.64239ZM843.795 52.8891C843.866 59.3142 842.775 65.6989 840.575 71.733C838.484 77.456 835.135 82.6329 830.777 86.8793C826.074 91.349 820.499 94.7905 814.402 96.986C807.043 99.635 799.268 100.934 791.45 100.821H775.758C775.19 100.817 774.628 100.926 774.103 101.143C773.578 101.359 773.102 101.677 772.7 102.08C772.299 102.482 771.982 102.961 771.766 103.488C771.551 104.014 771.442 104.579 771.446 105.148V132.017C771.457 132.587 771.351 133.154 771.135 133.682C770.919 134.209 770.598 134.687 770.19 135.085C769.796 135.489 769.324 135.809 768.804 136.026C768.283 136.242 767.724 136.351 767.161 136.345H740.169C739.602 136.348 739.04 136.239 738.515 136.023C737.99 135.806 737.513 135.488 737.112 135.085C736.711 134.683 736.394 134.204 736.178 133.677C735.963 133.151 735.854 132.586 735.857 132.017V8.51827C735.85 7.95004 735.96 7.38646 736.181 6.86316C736.402 6.33986 736.728 5.86822 737.14 5.47805C737.528 5.06354 737.998 4.73492 738.519 4.51324C739.041 4.29156 739.603 4.18171 740.169 4.19075H795.162C801.721 4.14256 808.222 5.43802 814.266 7.99787C820.037 10.4272 825.269 13.9837 829.658 18.4606C834.049 22.9445 837.583 28.199 840.084 33.963C842.624 39.9425 843.888 46.3895 843.795 52.8891ZM808.316 52.8891C808.315 50.9543 807.973 49.035 807.306 47.2195C806.665 45.3955 805.652 43.7257 804.332 42.3168C802.96 40.8362 801.309 39.6444 799.474 38.8109C797.37 37.878 795.087 37.4199 792.787 37.4689H775.812C775.24 37.457 774.671 37.5626 774.141 37.7793C773.61 37.9959 773.13 38.319 772.728 38.7288C772.319 39.1193 771.995 39.5916 771.779 40.1153C771.563 40.6389 771.459 41.2023 771.473 41.769V62.9136C771.459 63.4803 771.563 64.0436 771.779 64.5673C771.995 65.091 772.319 65.5633 772.728 65.9538C773.13 66.3636 773.61 66.6867 774.141 66.9033C774.671 67.12 775.24 67.2256 775.812 67.2137H795.135C797.033 67.3539 798.937 67.0194 800.675 66.2403C802.414 65.4612 803.933 64.2617 805.096 62.7493C807.178 59.8588 808.278 56.3731 808.234 52.8069L808.316 52.8891Z" fill="white"/>
</mask>
<g mask="url(#mask0_9486_1370)">
<path d="M872.994 0.000488281H577.673V35.7436H872.994V0.000488281Z" fill="#D9D8D6"/>
<path d="M872.994 35.7437H577.673V71.4868H872.994V35.7437Z" fill="#C8C8C8"/>
<path d="M872.994 71.4868H577.673V107.23H872.994V71.4868Z" fill="#B1B1B1"/>
<path d="M872.994 107.257H577.673V143H872.994V107.257Z" fill="#98989A"/>
<g style="mix-blend-mode:hard-light">
<path d="M873 -8H578V143H873V-8Z" fill="url(#paint5_linear_9486_1370)"/>
</g>
</g>
</g>
<defs>
<linearGradient id="paint0_linear_9486_1370" x1="54.7564" y1="2.39941" x2="54.7564" y2="138.541" gradientUnits="userSpaceOnUse">
<stop stop-color="white"/>
<stop offset="1" stop-color="#D9DFF9"/>
</linearGradient>
<linearGradient id="paint1_linear_9486_1370" x1="161.374" y1="4.18701" x2="161.374" y2="136.21" gradientUnits="userSpaceOnUse">
<stop stop-color="white"/>
<stop offset="1" stop-color="#D9DFF9"/>
</linearGradient>
<linearGradient id="paint2_linear_9486_1370" x1="268.609" y1="4.38184" x2="268.609" y2="136.234" gradientUnits="userSpaceOnUse">
<stop stop-color="white"/>
<stop offset="1" stop-color="#D9DFF9"/>
</linearGradient>
<linearGradient id="paint3_linear_9486_1370" x1="404.149" y1="2.21387" x2="404.149" y2="138.484" gradientUnits="userSpaceOnUse">
<stop stop-color="white"/>
<stop offset="1" stop-color="#D9DFF9"/>
</linearGradient>
<linearGradient id="paint4_linear_9486_1370" x1="542.743" y1="4.18604" x2="542.743" y2="136.224" gradientUnits="userSpaceOnUse">
<stop stop-color="white"/>
<stop offset="1" stop-color="#D9DFF9"/>
</linearGradient>
<linearGradient id="paint5_linear_9486_1370" x1="726" y1="-81.5" x2="725.5" y2="143" gradientUnits="userSpaceOnUse">
<stop stop-color="white" stop-opacity="0"/>
<stop offset="1" stop-color="#A6AEDE"/>
</linearGradient>
<clipPath id="clip0_9486_1370">
<rect width="873" height="143" fill="white"/>
</clipPath>
</defs>
</svg>
